<svg xmlns="http://www.w3.org/2000/svg" xmlns:xlink="http://www.w3.org/1999/xlink" viewBox="0 0 170 30.4"><defs><style>.a{fill:url(#a);}</style><linearGradient id="a" x1="99.2" y1="17.46" x2="99.2" y2="47.86" gradientTransform="matrix(1, 0, 0, -1, 0, 62)" gradientUnits="userSpaceOnUse"><stop offset="0" stop-color="#00a032"/><stop offset="0.09" stop-color="#00a13f"/><stop offset="0.36" stop-color="#00a365"/><stop offset="0.61" stop-color="#00a480"/><stop offset="0.83" stop-color="#00a590"/><stop offset="1" stop-color="#00a596"/></linearGradient></defs><title>logo_</title><path class="a" d="M167.7,35.6a5.11,5.11,0,1,1-10.2,0,5.13,5.13,0,0,1,5.1-5.4V26.6h0c-5.2,0-9.4,3.7-9.4,9s4.2,9,9.5,9,9.4-3.7,9.4-9h-4.4Zm-28,3.4a7.22,7.22,0,0,0,4.7,1.9c1.2,0,2.3-.5,2.3-1.5,0-2.6-8.4-2.2-8.4-7.7,0-3.2,2.9-5.1,6.6-5.1a8.22,8.22,0,0,1,5.8,2l-1.6,3.2a6.53,6.53,0,0,0-4.2-1.5c-1.1,0-2.2.5-2.2,1.5,0,2.4,8.4,2.1,8.4,7.6,0,2.9-2.5,5.2-6.6,5.2a9.72,9.72,0,0,1-6.7-2.5Zm-13.2,1.9a5.13,5.13,0,0,1-5.1-5.4,5.11,5.11,0,1,1,10.2,0c-0.1,3.3-2.4,5.4-5.1,5.4M117,35.6c0,5.3,4.2,9,9.5,9s9.4-3.7,9.4-9-4.2-9-9.5-9-9.4,3.7-9.4,9M98,27h4.1v2a8.37,8.37,0,0,1-.1,1.2h0.1a6.68,6.68,0,0,1,6.1-3.6c3.8,0,6,2,6,6.5v11H110V34c0-2.1-.5-3.5-2.7-3.5a4.63,4.63,0,0,0-4.6,3.5,8.52,8.52,0,0,0-.3,2.3v7.9H98V27ZM81.3,42A9.72,9.72,0,0,0,88,44.5c4.1,0,6.6-2.3,6.6-5.2,0-5.5-8.4-5.2-8.4-7.6,0-1.1,1.1-1.5,2.2-1.5a6.53,6.53,0,0,1,4.2,1.5l1.6-3.2a8.22,8.22,0,0,0-5.8-2c-3.7,0-6.6,1.9-6.6,5.1,0,5.5,8.4,5.2,8.4,7.7,0,1-1,1.5-2.3,1.5a7.22,7.22,0,0,1-4.7-1.9ZM67.7,39a7.22,7.22,0,0,0,4.7,1.9c1.2,0,2.3-.5,2.3-1.5,0-2.6-8.4-2.2-8.4-7.7,0-3.2,2.9-5.1,6.6-5.1a8.22,8.22,0,0,1,5.8,2l-1.6,3.2a6.53,6.53,0,0,0-4.2-1.5c-1.1,0-2.2.5-2.2,1.5,0,2.4,8.4,2.1,8.4,7.6,0,2.9-2.5,5.2-6.6,5.2a9.72,9.72,0,0,1-6.7-2.5Zm-9.5,5.1h4.3V27H58.2V44.1ZM28.8,27h4.5l3,11.3c0.2,0.9.3,1.8,0.3,1.8h0.1l0.4-1.8L40.3,27h3.8l3.2,11.2L47.7,40h0.1a9.92,9.92,0,0,1,.4-1.8l3-11.3h4.4L50.4,44.1H45.7l-2.9-9.8a10.11,10.11,0,0,1-.4-1.9H42.3a12.06,12.06,0,0,1-.4,1.9L39,44.1H34.2ZM16.1,39a7.22,7.22,0,0,0,4.7,1.9c1.2,0,2.3-.5,2.3-1.5,0-2.6-8.4-2.2-8.4-7.7,0-3.2,2.9-5.1,6.6-5.1a8.22,8.22,0,0,1,5.8,2l-1.6,3.2a6.53,6.53,0,0,0-4.2-1.5c-1.1,0-2.2.5-2.2,1.5,0,2.4,8.4,2.1,8.4,7.6,0,2.9-2.5,5.2-6.6,5.2a9.72,9.72,0,0,1-6.7-2.5ZM164.8,23.8a9.6,9.6,0,0,0,9.6-9.6h0.2a9.6,9.6,0,0,0,9.6,9.6V24a9.6,9.6,0,0,0-9.6,9.6h-0.2a9.6,9.6,0,0,0-9.6-9.6V23.8Z" transform="translate(-14.2 -14.2)"/></svg>